<?xml version="1.0" encoding="utf-8"?>
<svg
	version="1.1"
	xmlns="http://www.w3.org/2000/svg"
	xmlns:xlink="http://www.w3.org/1999/xlink"
	x="0%" y="0%"
	width="100%" height="100%"
	viewBox="0 0 24.0 24.0"
	enable-background="new 0 0 24.0 24.0"
	xml:space="preserve">
	<path
		fill="#FFFFFF"
		stroke="#000000"
		fill-opacity="1.000"
		stroke-opacity="1.000"
		fill-rule="nonzero"
		stroke-width="0.0"
		stroke-linejoin="miter"
		stroke-linecap="square"
		d="M5.76,12.39L10.24,12.39A1.37 1.37 0 0 1 11.61,13.76L11.61,18.24A1.37 1.37 0 0 1 10.24,19.61L5.76,19.61A1.37 1.37 0 0 1 4.39,18.24L4.39,13.76A1.37 1.37 0 0 1 5.76,12.39z"/>
	<path
		fill="#FFFFFF"
		stroke="#000000"
		fill-opacity="1.000"
		stroke-opacity="1.000"
		fill-rule="nonzero"
		stroke-width="0.0"
		stroke-linejoin="miter"
		stroke-linecap="square"
		d="M5.76,4.39L10.24,4.39A1.37 1.37 0 0 1 11.61,5.76L11.61,10.24A1.37 1.37 0 0 1 10.24,11.61L5.76,11.61A1.37 1.37 0 0 1 4.39,10.24L4.39,5.76A1.37 1.37 0 0 1 5.76,4.39z"/>
	<path
		fill="#FFFFFF"
		stroke="#000000"
		fill-opacity="1.000"
		stroke-opacity="1.000"
		fill-rule="nonzero"
		stroke-width="0.0"
		stroke-linejoin="miter"
		stroke-linecap="square"
		d="M13.76,4.39L18.24,4.39A1.37 1.37 0 0 1 19.61,5.76L19.61,10.24A1.37 1.37 0 0 1 18.24,11.61L13.76,11.61A1.37 1.37 0 0 1 12.39,10.24L12.39,5.76A1.37 1.37 0 0 1 13.76,4.39z"/>
	<path
		fill="#FFFFFF"
		stroke="#000000"
		fill-opacity="1.000"
		stroke-opacity="1.000"
		fill-rule="nonzero"
		stroke-width="0.0"
		stroke-linejoin="miter"
		stroke-linecap="square"
		d="M13.76,12.39L18.24,12.39A1.37 1.37 0 0 1 19.61,13.76L19.61,18.24A1.37 1.37 0 0 1 18.24,19.61L13.76,19.61A1.37 1.37 0 0 1 12.39,18.24L12.39,13.76A1.37 1.37 0 0 1 13.76,12.39z"/>
</svg>