<?xml version="1.0" encoding="utf-8"?>
<svg
	version="1.1"
	xmlns="http://www.w3.org/2000/svg"
	xmlns:xlink="http://www.w3.org/1999/xlink"
	x="0%" y="0%"
	width="100%" height="100%"
	viewBox="0 0 24.0 24.0"
	enable-background="new 0 0 24.0 24.0"
	xml:space="preserve">
	<path
		fill="#FFFFFF"
		stroke="#FFFFFF"
		fill-opacity="0.000"
		stroke-opacity="1.000"
		fill-rule="nonzero"
		stroke-width="1.4399999"
		stroke-linejoin="miter"
		stroke-linecap="round"
		d="M8.50,14.45L8.50,8.45L15.50,5.45L15.50,12.40"/>
	<path
		fill="#FFFFFF"
		stroke="#FFFFFF"
		fill-opacity="0.000"
		stroke-opacity="1.000"
		fill-rule="nonzero"
		stroke-width="1.4399999"
		stroke-linejoin="miter"
		stroke-linecap="round"
		d="M7.50,14.35C8.66,14.35,9.60,15.29,9.60,16.45C9.60,17.61,8.66,18.55,7.50,18.55C6.34,18.55,5.40,17.61,5.40,16.45C5.40,15.29,6.34,14.35,7.50,14.35z"/>
	<path
		fill="#FFFFFF"
		stroke="#FFFFFF"
		fill-opacity="0.000"
		stroke-opacity="1.000"
		fill-rule="nonzero"
		stroke-width="1.4399999"
		stroke-linejoin="miter"
		stroke-linecap="round"
		d="M14.50,12.29C15.66,12.29,16.60,13.24,16.60,14.40C16.60,15.56,15.66,16.50,14.50,16.50C13.34,16.50,12.40,15.56,12.40,14.40C12.40,13.24,13.34,12.29,14.50,12.29z"/>
</svg>