<?xml version="1.0" encoding="utf-8"?>
<svg
	version="1.1"
	xmlns="http://www.w3.org/2000/svg"
	xmlns:xlink="http://www.w3.org/1999/xlink"
	x="0%" y="0%"
	width="100%" height="100%"
	viewBox="0 0 24.0 24.0"
	enable-background="new 0 0 24.0 24.0"
	xml:space="preserve">
	<path
		fill="#FFFFFF"
		stroke="#000000"
		fill-opacity="1.000"
		stroke-opacity="1.000"
		fill-rule="nonzero"
		stroke-width="0.0"
		stroke-linejoin="round"
		stroke-linecap="square"
		d="M16.00,13.71L16.25,13.71Q20.00,20.71,21.00,16.71L21.00,10.71L21.00,10.00Q20.00,6.71,17.00,5.71L16.00,5.71L8.00,5.71L7.00,5.71Q4.00,6.71,3.00,10.00L3.00,10.71L3.00,16.71Q4.00,20.71,7.50,14.55L8.00,13.71L16.00,13.71zM17.05,10.99C17.45,10.99,17.78,11.31,17.78,11.70C17.78,12.09,17.45,12.41,17.05,12.41C16.65,12.41,16.33,12.09,16.33,11.70C16.33,11.31,16.65,10.99,17.05,10.99zM15.35,9.30C15.75,9.30,16.07,9.61,16.07,10.00C16.07,10.39,15.75,10.70,15.35,10.70C14.96,10.70,14.64,10.39,14.64,10.00C14.64,9.61,14.96,9.30,15.35,9.30zM18.75,9.29C19.15,9.29,19.48,9.61,19.48,10.00C19.48,10.39,19.15,10.71,18.75,10.71C18.35,10.71,18.03,10.39,18.03,10.00C18.03,9.61,18.35,9.29,18.75,9.29zM17.05,7.59C17.45,7.59,17.78,7.91,17.78,8.30C17.78,8.69,17.45,9.01,17.05,9.01C16.65,9.01,16.33,8.69,16.33,8.30C16.33,7.91,16.65,7.59,17.05,7.59zM4.91,9.61L8.81,9.61A0.39 0.39 0 0 1 9.20,10.00L9.20,10.00A0.39 0.39 0 0 1 8.81,10.39L4.91,10.39A0.39 0.39 0 0 1 4.52,10.00L4.52,10.00A0.39 0.39 0 0 1 4.91,9.61zM6.86,7.66L6.86,7.66A0.39 0.39 0 0 1 7.25,8.05L7.25,11.95A0.39 0.39 0 0 1 6.86,12.34L6.86,12.34A0.39 0.39 0 0 1 6.47,11.95L6.47,8.05A0.39 0.39 0 0 1 6.86,7.66z"/>
</svg>