<?xml version="1.0" encoding="utf-8"?>
<svg
	version="1.1"
	xmlns="http://www.w3.org/2000/svg"
	xmlns:xlink="http://www.w3.org/1999/xlink"
	x="0%" y="0%"
	width="100%" height="100%"
	viewBox="0 0 24.0 24.0"
	enable-background="new 0 0 24.0 24.0"
	xml:space="preserve">
	<path
		fill="#FFFFFF"
		stroke="#000000"
		fill-opacity="1.000"
		stroke-opacity="1.000"
		fill-rule="nonzero"
		stroke-width="0.0"
		stroke-linejoin="miter"
		stroke-linecap="square"
		d="M5.75,11.00L18.25,11.00A1.25 1.25 0 0 1 19.50,12.25L19.50,19.75A1.25 1.25 0 0 1 18.25,21.00L5.75,21.00A1.25 1.25 0 0 1 4.50,19.75L4.50,12.25A1.25 1.25 0 0 1 5.75,11.00zM4.50,14.50L4.50,17.50A0.00 0.00 0 0 0 4.50,17.50L9.75,17.50A0.00 0.00 0 0 0 9.75,17.50L9.75,14.50A0.00 0.00 0 0 0 9.75,14.50L4.50,14.50A0.00 0.00 0 0 0 4.50,14.50z"/>
	<path
		fill="#FFFFFF"
		stroke="#FFFFFF"
		fill-opacity="0.000"
		stroke-opacity="1.000"
		fill-rule="nonzero"
		stroke-width="1.2"
		stroke-linejoin="miter"
		stroke-linecap="round"
		d="M12.00,2.00L12.00,9.00"/>
	<path
		fill="#FFFFFF"
		stroke="#FFFFFF"
		fill-opacity="0.000"
		stroke-opacity="1.000"
		fill-rule="nonzero"
		stroke-width="1.2"
		stroke-linejoin="round"
		stroke-linecap="round"
		d="M15.00,6.00L12.00,10.00L9.00,6.00"/>
	<path
		fill="#FFFFFF"
		stroke="#FFFFFF"
		fill-opacity="0.000"
		stroke-opacity="1.000"
		fill-rule="nonzero"
		stroke-width="0.384"
		stroke-linejoin="round"
		stroke-linecap="round"
		d="M6.00,15.25C6.41,15.25,6.75,15.59,6.75,16.00C6.75,16.41,6.41,16.75,6.00,16.75C5.59,16.75,5.25,16.41,5.25,16.00C5.25,15.59,5.59,15.25,6.00,15.25z"/>
</svg>