<?xml version="1.0" encoding="utf-8"?>
<svg
	version="1.1"
	xmlns="http://www.w3.org/2000/svg"
	xmlns:xlink="http://www.w3.org/1999/xlink"
	x="0%" y="0%"
	width="100%" height="100%"
	viewBox="0 0 24.0 24.0"
	enable-background="new 0 0 24.0 24.0"
	xml:space="preserve">
	<path
		fill="#FFFFFF"
		stroke="#000000"
		fill-opacity="1.000"
		stroke-opacity="1.000"
		fill-rule="nonzero"
		stroke-width="0.0"
		stroke-linejoin="miter"
		stroke-linecap="square"
		d="M4.48,4.00L11.52,4.00A0.48 0.48 0 0 1 12.00,4.48L12.00,19.52A0.48 0.48 0 0 1 11.52,20.00L4.48,20.00A0.48 0.48 0 0 1 4.00,19.52L4.00,4.48A0.48 0.48 0 0 1 4.48,4.00z"/>
	<path
		fill="#FFFFFF"
		stroke="#FFFFFF"
		fill-opacity="0.000"
		stroke-opacity="1.000"
		fill-rule="nonzero"
		stroke-width="1.008"
		stroke-linejoin="miter"
		stroke-linecap="square"
		d="M11.50,4.50L14.50,4.50A1.50 1.50 0 0 1 16.00,6.00L16.00,18.00A1.50 1.50 0 0 1 14.50,19.50L11.50,19.50A1.50 1.50 0 0 1 10.00,18.00L10.00,6.00A1.50 1.50 0 0 1 11.50,4.50z"/>
	<path
		fill="#FFFFFF"
		stroke="#FFFFFF"
		fill-opacity="1.000"
		stroke-opacity="1.000"
		fill-rule="nonzero"
		stroke-width="0.0"
		stroke-linejoin="miter"
		stroke-linecap="square"
		d="M17.13,11.50L21.63,11.50A0.12 0.12 0 0 1 21.75,11.63L21.75,12.38A0.12 0.12 0 0 1 21.63,12.50L17.13,12.50A0.12 0.12 0 0 1 17.00,12.38L17.00,11.63A0.12 0.12 0 0 1 17.13,11.50z"/>
	<path
		fill="#FFFFFF"
		stroke="#FFFFFF"
		fill-opacity="1.000"
		stroke-opacity="1.000"
		fill-rule="nonzero"
		stroke-width="0.0"
		stroke-linejoin="miter"
		stroke-linecap="square"
		d="M20.25,10.50L22.75,12.00L20.25,13.50"/>
</svg>