<?xml version="1.0" encoding="utf-8"?>
<svg
	version="1.1"
	xmlns="http://www.w3.org/2000/svg"
	xmlns:xlink="http://www.w3.org/1999/xlink"
	x="0%" y="0%"
	width="100%" height="100%"
	viewBox="0 0 24.0 24.0"
	enable-background="new 0 0 24.0 24.0"
	xml:space="preserve">
	<path
		fill="#FFFFFF"
		stroke="#FFFFFF"
		fill-opacity="1.000"
		stroke-opacity="1.000"
		fill-rule="nonzero"
		stroke-width="0.6"
		stroke-linejoin="round"
		stroke-linecap="square"
		d="M9.00,7.00L9.00,4.00L15.00,4.00L15.00,7.00L18.55,6.18L20.00,10.55L17.00,12.00L20.00,13.45L18.55,17.82L15.00,17.00L15.00,20.00L9.00,20.00L9.00,17.00L5.45,17.82L4.00,13.45L7.00,12.00L4.00,10.55L5.45,6.18L9.00,7.00zM12.00,8.75C10.21,8.75,8.75,10.21,8.75,12.00C8.75,13.79,10.21,15.25,12.00,15.25C13.79,15.25,15.25,13.79,15.25,12.00C15.25,10.21,13.79,8.75,12.00,8.75z"/>
</svg>