<?xml version="1.0" encoding="utf-8"?>
<svg
	version="1.1"
	xmlns="http://www.w3.org/2000/svg"
	xmlns:xlink="http://www.w3.org/1999/xlink"
	x="0%" y="0%"
	width="100%" height="100%"
	viewBox="0 0 24.0 24.0"
	enable-background="new 0 0 24.0 24.0"
	xml:space="preserve">
	<path
		fill="#FFFFFF"
		stroke="#000000"
		fill-opacity="1.000"
		stroke-opacity="1.000"
		fill-rule="nonzero"
		stroke-width="0.0"
		stroke-linejoin="round"
		stroke-linecap="round"
		d="M3.75,5.00L20.25,5.00A1.75 1.75 0 0 1 22.00,6.75L22.00,17.25A1.75 1.75 0 0 1 20.25,19.00L3.75,19.00A1.75 1.75 0 0 1 2.00,17.25L2.00,6.75A1.75 1.75 0 0 1 3.75,5.00zM19.00,6.12L19.00,6.88A0.12 0.12 0 0 0 19.13,7.00L19.88,7.00A0.12 0.12 0 0 0 20.00,6.88L20.00,6.12A0.12 0.12 0 0 0 19.88,6.00L19.13,6.00A0.12 0.12 0 0 0 19.00,6.12zM17.00,6.12L17.00,6.88A0.12 0.12 0 0 0 17.13,7.00L17.88,7.00A0.12 0.12 0 0 0 18.00,6.88L18.00,6.12A0.12 0.12 0 0 0 17.88,6.00L17.13,6.00A0.12 0.12 0 0 0 17.00,6.12zM15.00,6.13L15.00,6.88A0.12 0.12 0 0 0 15.13,7.00L15.88,7.00A0.12 0.12 0 0 0 16.00,6.88L16.00,6.13A0.12 0.12 0 0 0 15.88,6.00L15.13,6.00A0.12 0.12 0 0 0 15.00,6.13zM13.00,6.06L13.00,6.94A0.06 0.06 0 0 0 13.06,7.00L13.44,7.00A0.06 0.06 0 0 0 13.50,6.94L13.50,6.06A0.06 0.06 0 0 0 13.44,6.00L13.06,6.00A0.06 0.06 0 0 0 13.00,6.06zM14.00,6.04L14.00,6.96A0.04 0.04 0 0 0 14.04,7.00L14.29,7.00A0.04 0.04 0 0 0 14.33,6.96L14.33,6.04A0.04 0.04 0 0 0 14.29,6.00L14.04,6.00A0.04 0.04 0 0 0 14.00,6.04zM14.25,12.50L9.75,9.50L9.75,15.50M3.00,8.02L3.00,8.13A0.02 0.02 0 0 0 3.02,8.14L20.98,8.14A0.02 0.02 0 0 0 21.00,8.13L21.00,8.02A0.02 0.02 0 0 0 20.98,8.00L3.02,8.00A0.02 0.02 0 0 0 3.00,8.02z"/>
</svg>