<?xml version="1.0" encoding="utf-8"?>
<svg
	version="1.1"
	xmlns="http://www.w3.org/2000/svg"
	xmlns:xlink="http://www.w3.org/1999/xlink"
	x="0%" y="0%"
	width="100%" height="100%"
	viewBox="0 0 24.0 24.0"
	enable-background="new 0 0 24.0 24.0"
	xml:space="preserve">
	<path
		fill="#FFFFFF"
		stroke="#000000"
		fill-opacity="1.000"
		stroke-opacity="1.000"
		fill-rule="nonzero"
		stroke-width="0.0"
		stroke-linejoin="miter"
		stroke-linecap="square"
		d="M4.25,5.37L19.80,5.37A2.18 2.18 0 0 1 21.98,7.54L21.98,16.46A2.18 2.18 0 0 1 19.80,18.63L4.25,18.63A2.18 2.18 0 0 1 2.07,16.46L2.07,7.54A2.18 2.18 0 0 1 4.25,5.37zM2.09,10.67L2.09,13.33A0.67 0.67 0 0 0 2.75,14.00L9.33,14.00A0.67 0.67 0 0 0 10.00,13.33L10.00,10.67A0.67 0.67 0 0 0 9.33,10.00L2.75,10.00A0.67 0.67 0 0 0 2.09,10.67zM5.00,10.70C4.28,10.70,3.70,11.28,3.70,12.00C3.70,12.72,4.28,13.30,5.00,13.30C5.72,13.30,6.30,12.72,6.30,12.00C6.30,11.28,5.72,10.70,5.00,10.70zM3.00,6.00L3.00,6.00A1.00 1.00 0 0 0 4.00,7.00L20.00,7.00A1.00 1.00 0 0 0 21.00,6.00L21.00,6.00A1.00 1.00 0 0 0 20.00,5.00L4.00,5.00A1.00 1.00 0 0 0 3.00,6.00zM4.00,5.75L4.00,5.75A0.75 0.75 0 0 0 4.75,6.50L19.25,6.50A0.75 0.75 0 0 0 20.00,5.75L20.00,5.75A0.75 0.75 0 0 0 19.25,5.00L4.75,5.00A0.75 0.75 0 0 0 4.00,5.75zM5.00,11.46C5.30,11.46,5.54,11.70,5.54,12.00C5.54,12.30,5.30,12.54,5.00,12.54C4.70,12.54,4.46,12.30,4.46,12.00C4.46,11.70,4.70,11.46,5.00,11.46z"/>
</svg>